<?xml version="1.0" standalone="no"?>
<!DOCTYPE svg PUBLIC "-//W3C//DTD SVG 20010904//EN"
 "http://www.w3.org/TR/2001/REC-SVG-20010904/DTD/svg10.dtd">
<svg version="1.0" xmlns="http://www.w3.org/2000/svg"
 width="337.000000pt" height="337.000000pt" viewBox="0 0 337.000000 337.000000"
 preserveAspectRatio="xMidYMid meet">
<metadata>
Created by potrace 1.14, written by Peter Selinger 2001-2017
</metadata>
<g transform="translate(0.000000,337.000000) scale(0.100000,-0.100000)"
fill="#000000" stroke="none">
<path d="M2974 2956 c-21 -18 -28 -32 -28 -61 0 -32 -8 -46 -55 -95 -101 -104
-418 -434 -467 -485 -26 -27 -124 -130 -217 -228 l-171 -177 -32 60 c-86 161
-243 306 -419 386 -63 29 -207 69 -280 79 -61 8 -235 8 -290 0 -216 -31 -407
-124 -550 -269 -130 -130 -187 -239 -220 -421 -16 -89 1 -259 35 -346 50 -125
90 -174 209 -253 132 -88 298 -125 471 -104 244 29 453 194 529 418 21 63 25
189 7 263 -26 109 -62 174 -140 253 -108 107 -198 159 -334 190 l-57 13 55 -4
c92 -7 177 -38 303 -112 34 -19 146 -132 178 -180 38 -55 77 -148 90 -216 9
-51 13 -177 6 -207 -2 -8 -7 -33 -12 -55 -18 -90 -84 -205 -159 -278 -97 -94
-238 -177 -301 -177 -24 0 -24 0 -9 -42 9 -24 17 -50 19 -58 2 -8 25 -76 50
-150 26 -74 49 -142 50 -150 2 -8 4 -16 5 -17 2 -2 3 -6 5 -10 1 -5 6 -19 12
-33 5 -14 16 -46 24 -73 12 -43 16 -47 45 -47 26 0 32 5 41 33 16 48 132 377
148 417 l13 35 10 -25 c16 -37 80 -221 83 -238 1 -4 10 -29 21 -57 11 -27 28
-75 38 -105 16 -52 19 -55 50 -55 l33 0 57 168 c31 92 57 169 57 170 -1 9 28
85 36 94 5 7 7 13 3 13 -5 0 0 17 30 95 4 11 7 23 6 27 -1 4 22 14 51 23 114
37 244 114 336 199 150 139 231 274 280 471 10 37 15 43 63 60 64 23 144 100
177 170 28 59 38 167 21 221 -26 87 -87 171 -143 201 l-28 14 68 55 c37 31 77
63 88 72 12 10 57 46 100 82 44 36 82 68 83 72 2 5 26 8 53 8 42 0 54 5 75 28
21 22 25 34 21 66 -8 55 -37 81 -89 80 -33 -1 -47 -7 -65 -30 -13 -16 -23 -40
-23 -54 0 -15 -11 -33 -28 -45 -15 -11 -103 -82 -195 -158 -151 -124 -172
-138 -202 -135 l-34 3 111 115 c339 351 333 345 368 347 48 3 80 37 80 86 0
78 -86 115 -146 63z m-2137 -1076 c54 -18 104 -57 162 -126 39 -47 71 -154 71
-239 0 -155 -76 -286 -205 -353 -69 -36 -178 -37 -249 -2 -68 33 -128 96 -167
176 -28 56 -34 80 -37 154 -6 130 28 226 111 313 79 82 202 113 314 77z m1237
-352 c-9 -62 -52 -187 -74 -219 -11 -15 -20 -30 -20 -33 0 -11 -42 -66 -89
-118 -60 -66 -175 -157 -238 -190 -13 -6 -23 -14 -23 -18 0 -3 57 -5 128 -5
70 1 130 0 134 -2 4 -2 1 -20 -7 -39 -7 -18 -12 -34 -9 -34 3 0 2 -5 -2 -12
-7 -10 -103 -289 -108 -313 -6 -27 -31 -85 -36 -85 -4 0 -24 51 -44 113 -21
61 -40 119 -43 127 -4 8 -7 17 -8 20 0 3 -18 56 -39 118 -36 106 -39 112 -65
112 -22 0 -29 -6 -40 -37 -7 -21 -16 -47 -21 -58 -11 -28 -62 -178 -64 -190
-1 -5 -4 -14 -7 -20 -3 -5 -19 -50 -34 -98 -18 -57 -32 -84 -38 -78 -8 8 -167
473 -163 477 0 1 37 4 81 8 140 10 217 27 334 75 232 94 433 301 482 494 14
59 21 61 13 5z"/>
<path d="M742 1786 c-46 -16 -104 -74 -133 -133 -33 -67 -34 -206 -2 -274 24
-54 91 -125 131 -140 39 -15 113 -13 154 4 84 35 148 143 152 255 8 202 -143
346 -302 288z m70 -123 c34 -21 57 -69 63 -130 14 -171 -133 -247 -190 -99
-16 40 -16 79 -4 165 3 20 67 81 85 81 9 0 29 -8 46 -17z"/>
<path d="M769 949 c-59 -9 -89 -25 -125 -68 -23 -27 -28 -43 -28 -85 0 -88 46
-127 191 -162 83 -21 139 -47 153 -73 17 -32 11 -68 -16 -100 -23 -28 -41 -35
-113 -45 -41 -5 -124 14 -168 40 -40 23 -43 23 -52 6 -5 -10 -7 -23 -3 -29 10
-15 81 -49 122 -58 55 -13 152 -7 196 11 48 20 93 69 96 103 1 14 2 35 3 46 2
29 -20 70 -51 94 -24 19 -133 57 -218 76 -16 3 -42 20 -59 36 -25 25 -29 35
-24 65 3 20 12 42 18 51 41 49 161 61 245 24 26 -12 48 -20 49 -19 2 2 5 12 9
24 5 17 -1 24 -32 38 -49 22 -135 33 -193 25z"/>
<path d="M2187 949 c-94 -15 -149 -67 -153 -145 -5 -91 33 -126 186 -169 52
-15 107 -34 122 -43 74 -43 51 -139 -40 -165 -66 -20 -137 -12 -204 22 -56 28
-78 27 -78 -5 0 -34 120 -76 217 -75 71 0 115 15 166 55 29 22 46 93 34 138
-14 55 -60 86 -178 119 -117 33 -157 55 -166 89 -14 51 5 91 54 117 42 22 148
19 205 -6 47 -20 48 -20 58 -1 9 17 6 23 -22 40 -28 17 -55 24 -138 35 -8 1
-36 -2 -63 -6z"/>
</g>
</svg>
